<?xml version="1.0" standalone="no"?>
<!DOCTYPE svg PUBLIC "-//W3C//DTD SVG 20010904//EN"
 "http://www.w3.org/TR/2001/REC-SVG-20010904/DTD/svg10.dtd">
<svg version="1.0" xmlns="http://www.w3.org/2000/svg"
 width="541.000000pt" height="600.000000pt" viewBox="0 0 541.000000 600.000000"
 preserveAspectRatio="xMidYMid meet">

<g transform="translate(0.000000,600.000000) scale(0.100000,-0.100000)"
fill="#000000" stroke="none">
<path d="M265 5984 c-9 -10 -31 -25 -48 -33 -54 -28 -68 -58 -83 -187 -8 -66
-22 -136 -31 -157 -16 -37 -74 -97 -93 -97 -6 0 -10 -7 -10 -15 0 -13 38 -15
280 -15 205 0 280 3 280 12 0 6 -18 27 -40 46 -63 53 -70 74 -89 244 -12 102
-29 142 -74 164 -17 9 -42 25 -53 36 -20 18 -22 18 -39 2z m-55 -369 l0 -105
-45 0 c-25 0 -45 4 -45 10 0 5 11 25 25 45 13 20 30 63 36 96 6 32 16 59 20
59 5 0 9 -47 9 -105z"/>
<path d="M803 5904 c-22 -22 -25 -32 -20 -70 3 -28 15 -57 33 -79 16 -20 44
-54 62 -77 36 -44 40 -83 10 -101 -24 -16 -48 9 -48 49 0 31 -3 34 -30 34 -28
0 -30 -2 -30 -39 0 -47 28 -86 69 -94 84 -17 144 61 112 146 -5 14 -35 53 -66
88 -42 47 -55 69 -53 88 2 20 9 26 28 26 20 0 26 -6 30 -30 4 -24 11 -31 33
-33 25 -3 27 -1 27 31 0 20 -9 46 -21 61 -29 37 -99 37 -136 0z"/>
<path d="M1126 5893 c-3 -21 -19 -111 -35 -201 l-28 -163 31 3 c27 3 31 7 34
36 3 32 5 33 40 30 34 -3 37 -6 40 -35 3 -30 6 -33 36 -33 l33 0 -32 163 c-18
89 -36 179 -39 200 -6 34 -10 37 -40 37 -31 0 -34 -3 -40 -37z m59 -175 l7
-68 -27 0 c-24 0 -26 3 -21 28 3 15 8 49 12 75 9 63 21 49 29 -35z"/>
<path d="M1380 5730 l0 -200 30 0 30 0 0 122 c0 67 2 119 5 116 3 -3 21 -57
39 -119 31 -106 35 -114 60 -117 l26 -3 0 200 0 201 -25 0 c-24 0 -24 -1 -27
-102 -3 -113 -5 -113 -43 15 l-26 87 -35 0 -34 0 0 -200z"/>
<path d="M1898 5758 c-3 -171 -3 -173 -25 -176 -29 -4 -32 -48 -4 -57 25 -8
68 10 80 34 7 12 11 91 11 195 l0 176 -30 0 -30 0 -2 -172z"/>
<path d="M2100 5753 c1 -196 4 -207 61 -223 43 -12 95 3 111 33 8 14 14 87 16
195 l4 172 -36 0 -36 0 -2 -172 -3 -173 -25 0 -25 0 -3 173 -2 172 -30 0 -30
0 0 -177z"/>
<path d="M2456 5913 c-5 -18 -66 -365 -66 -377 0 -3 14 -6 30 -6 23 0 30 5 30
19 0 38 11 51 46 51 30 0 34 -3 40 -35 5 -31 10 -35 36 -35 26 0 29 3 25 23
-3 12 -20 102 -38 199 l-34 178 -32 0 c-22 0 -33 -6 -37 -17z m59 -220 c6 -42
5 -43 -21 -43 l-26 0 7 68 c11 109 21 103 40 -25z"/>
<path d="M2710 5730 l0 -200 25 0 25 0 0 121 c0 66 4 118 8 115 5 -3 24 -57
42 -121 33 -111 35 -115 62 -115 l28 0 0 200 0 200 -27 0 -28 0 3 -100 c2 -57
0 -100 -5 -100 -5 0 -22 45 -38 100 l-28 100 -34 0 -33 0 0 -200z"/>
<path d="M3200 5730 l0 -200 70 0 c62 0 74 3 95 25 21 20 25 34 25 81 0 37 -5
63 -15 74 -13 15 -13 20 1 49 24 48 14 118 -21 148 -21 19 -38 23 -91 23 l-64
0 0 -200z m124 118 c15 -42 -3 -82 -37 -86 -27 -3 -27 -3 -27 58 0 61 0 61 27
58 20 -2 30 -11 37 -30z m-10 -154 c34 -33 13 -114 -29 -114 -24 0 -25 3 -25
65 0 58 2 65 19 65 11 0 27 -7 35 -16z"/>
<path d="M3556 5918 c-6 -17 -66 -364 -66 -378 0 -5 13 -10 29 -10 26 0 30 4
33 33 3 29 6 32 39 35 35 3 37 1 43 -32 6 -32 11 -36 36 -36 17 0 30 3 29 8 0
4 -17 93 -38 197 l-37 190 -32 3 c-20 2 -34 -2 -36 -10z m48 -170 c4 -29 10
-63 13 -75 4 -20 1 -23 -22 -23 -28 0 -28 0 -21 53 3 28 6 62 6 75 0 43 17 21
24 -30z"/>
<path d="M3800 5778 c0 -186 9 -224 55 -244 44 -18 90 -8 115 24 18 22 20 41
20 198 l0 174 -30 0 -30 0 0 -162 c0 -90 -4 -169 -9 -176 -5 -8 -17 -12 -27
-10 -18 3 -19 16 -22 176 l-2 172 -35 0 -35 0 0 -152z"/>
<path d="M4094 5908 c1 -19 8 -24 41 -28 l40 -5 3 -172 2 -173 30 0 30 0 0
175 0 175 40 0 c36 0 40 3 40 25 l0 25 -113 0 c-111 0 -114 0 -113 -22z"/>
<path d="M4440 5730 l0 -200 30 0 30 0 0 200 0 200 -30 0 -30 0 0 -200z"/>
<path d="M4642 5907 c-15 -16 -22 -36 -22 -64 0 -42 13 -64 82 -145 44 -52 54
-86 34 -113 -20 -27 -48 -10 -60 38 -8 29 -14 37 -33 37 -20 0 -23 -5 -23 -39
0 -57 34 -94 86 -94 56 0 81 17 95 62 16 54 0 96 -67 171 -42 48 -54 68 -52
89 2 20 8 26 28 26 21 0 26 -5 28 -32 3 -29 7 -33 33 -33 26 0 29 3 29 34 0
19 -9 45 -21 60 -28 36 -105 38 -137 3z"/>
<path d="M4898 5906 c-5 -23 -2 -25 36 -28 l41 -3 3 -172 2 -173 30 0 30 0 0
175 0 175 40 0 c36 0 40 3 40 25 l0 25 -109 0 c-107 0 -109 0 -113 -24z"/>
<path d="M5245 5908 c-7 -32 -65 -361 -65 -370 0 -5 14 -8 30 -8 23 0 30 5 30
19 0 38 11 51 46 51 30 0 34 -3 40 -35 5 -31 10 -35 36 -35 26 0 29 3 25 23
-3 12 -20 102 -38 199 l-34 178 -32 0 c-26 0 -34 -5 -38 -22z m60 -215 c6 -41
5 -43 -20 -43 l-27 0 7 68 c12 109 21 103 40 -25z"/>
<path d="M265 5119 c-104 -21 -191 -38 -192 -39 -2 0 -3 -15 -3 -33 l0 -33
187 -32 c104 -18 194 -32 201 -32 7 0 12 13 12 30 0 28 -3 30 -35 30 -34 0
-35 1 -35 39 0 37 2 40 33 43 28 3 32 7 35 36 2 17 0 31 -5 31 -4 -1 -93 -19
-198 -40z m85 -63 c0 -14 -3 -27 -7 -29 -5 -2 -39 2 -78 8 -84 14 -73 20 78
44 4 0 7 -10 7 -23z"/>
<path d="M1560 5141 c-453 -100 -758 -466 -788 -946 -16 -258 17 -465 103
-644 61 -125 116 -201 215 -294 105 -99 190 -149 505 -297 519 -243 573 -275
671 -398 62 -78 129 -219 161 -338 23 -86 26 -120 27 -259 1 -189 -10 -243
-81 -383 -100 -202 -288 -347 -500 -388 -178 -34 -334 -5 -473 88 -102 68
-119 96 -255 434 -69 169 -126 301 -129 293 -8 -25 -126 -673 -126 -692 0 -47
297 -215 464 -262 130 -37 215 -48 356 -48 475 0 804 246 929 694 51 183 72
460 52 661 -29 282 -123 487 -284 620 -68 56 -144 97 -747 409 -353 182 -379
197 -440 259 -135 136 -210 355 -210 617 0 236 81 416 243 539 171 129 442
199 624 161 148 -32 273 -98 375 -198 60 -59 75 -83 152 -240 46 -96 103 -217
125 -269 22 -52 42 -88 45 -80 2 8 32 155 65 325 l61 310 -49 46 c-129 121
-328 219 -551 271 -127 30 -424 35 -540 9z"/>
<path d="M2649 5099 c129 -83 191 -149 245 -262 25 -51 50 -117 57 -147 9 -42
13 -430 16 -1615 4 -1535 3 -1563 -17 -1750 -63 -558 -173 -984 -316 -1214
l-27 -45 48 35 c76 54 197 177 262 265 147 200 217 398 289 821 54 321 54 325
54 2221 l0 1752 -352 0 -352 0 93 -61z"/>
<path d="M3560 3117 l0 -2047 78 -1 c477 -8 778 45 1067 187 238 116 430 306
548 540 171 340 205 904 77 1256 -132 361 -443 630 -853 738 l-87 23 65 36
c158 87 260 187 334 331 79 152 124 389 101 535 -31 202 -192 375 -400 430
-79 21 -212 19 -305 -5 -90 -23 -252 -98 -352 -162 -37 -24 -73 -47 -79 -51
-7 -4 -47 40 -103 115 l-91 122 0 -2047z m644 1858 c97 -16 216 -108 265 -206
42 -84 55 -156 48 -274 -14 -241 -122 -447 -290 -553 -106 -66 -338 -152 -411
-152 -15 0 -16 51 -14 537 l3 537 55 33 c92 56 225 96 285 87 11 -1 38 -6 59
-9z m-189 -1276 c235 -29 422 -119 598 -288 220 -212 367 -497 407 -792 16
-117 14 -338 -5 -444 -79 -447 -381 -772 -800 -861 -92 -20 -244 -29 -328 -20
l-67 8 0 1204 0 1204 53 0 c28 0 93 -5 142 -11z"/>
<path d="M125 4836 c-39 -17 -55 -53 -55 -121 l0 -55 200 0 200 0 0 64 c0 79
-5 93 -41 111 -37 20 -260 20 -304 1z m276 -56 c11 -6 19 -21 19 -36 l0 -25
-147 3 c-156 3 -172 9 -134 47 19 19 33 21 132 21 61 0 119 -5 130 -10z"/>
<path d="M248 4512 l-178 -35 0 -33 c0 -37 -19 -31 205 -69 83 -14 160 -28
173 -30 19 -5 22 -1 22 24 0 26 -4 31 -35 37 -32 6 -35 9 -35 39 0 34 13 45
51 45 14 0 19 7 19 30 0 38 5 38 -222 -8z m102 -68 c0 -25 -1 -25 -57 -18 -32
4 -67 10 -78 14 -16 6 -12 9 20 15 22 4 45 8 50 10 6 2 22 4 38 4 23 1 27 -3
27 -25z"/>
<path d="M70 4241 c0 -33 1 -33 130 -52 47 -6 91 -15 99 -19 16 -8 13 -9 -136
-36 l-93 -16 0 -30 c0 -26 3 -30 23 -26 12 3 102 20 199 39 l178 34 0 33 c0
17 -4 32 -9 32 -5 0 -92 16 -194 35 -102 19 -187 35 -191 35 -3 0 -6 -13 -6
-29z"/>
<path d="M70 3910 l0 -30 200 0 200 0 0 30 0 30 -200 0 -200 0 0 -30z"/>
<path d="M134 3754 c-41 -9 -58 -41 -62 -115 l-4 -69 201 0 201 0 0 30 0 30
-85 0 c-84 0 -85 0 -85 25 0 34 31 47 106 43 l64 -3 0 34 0 33 -79 -3 c-60 -3
-84 -9 -100 -23 -20 -18 -22 -18 -40 -2 -20 18 -79 28 -117 20z m106 -79 c25
-30 4 -45 -60 -45 -56 0 -60 1 -60 23 0 13 3 27 7 30 13 14 100 7 113 -8z"/>
<path d="M103 3436 c-24 -21 -28 -32 -31 -95 l-4 -71 201 0 201 0 0 30 0 30
-85 0 c-74 0 -85 2 -85 18 0 43 -21 89 -46 100 -45 21 -119 15 -151 -12z m128
-46 c11 -6 19 -21 19 -35 0 -24 -3 -25 -65 -25 -62 0 -65 1 -65 25 0 13 8 29
18 34 22 13 68 14 93 1z"/>
<path d="M166 2989 c-72 -12 -90 -34 -94 -119 l-4 -70 201 0 201 0 0 69 c0 92
-14 109 -100 121 -76 11 -136 11 -204 -1z m242 -71 c7 -7 12 -22 12 -35 l0
-24 -147 3 -148 3 3 25 c1 13 8 28 15 32 20 13 251 10 265 -4z"/>
<path d="M305 2665 c-88 -17 -177 -35 -198 -39 -34 -6 -37 -10 -37 -40 0 -31
3 -34 38 -40 20 -3 110 -19 200 -34 l162 -29 0 27 c0 28 -15 40 -51 40 -17 0
-20 6 -17 38 3 34 6 37 36 40 29 3 32 6 32 38 0 19 -1 34 -2 33 -2 -1 -75 -16
-163 -34z m45 -81 c0 -23 -3 -25 -27 -20 -16 3 -50 8 -76 12 -75 10 -39 27 71
32 28 2 32 -1 32 -24z"/>
<path d="M124 2376 c-37 -16 -54 -57 -54 -127 l0 -49 200 0 200 0 0 66 c0 78
-9 98 -51 113 -46 16 -257 13 -295 -3z m270 -56 c19 -7 26 -17 26 -35 l0 -25
-150 0 c-117 0 -150 3 -150 13 0 17 21 43 40 50 26 10 208 7 234 -3z"/>
<path d="M70 2040 l0 -30 200 0 200 0 0 30 0 30 -200 0 -200 0 0 -30z"/>
<path d="M305 1871 c-16 -10 -41 -30 -55 -45 -38 -42 -87 -68 -110 -61 -33 11
-22 48 18 60 24 7 32 15 32 32 0 20 -5 23 -40 23 -54 0 -80 -26 -80 -83 0 -52
20 -83 60 -92 46 -10 97 12 162 72 49 45 64 54 90 51 42 -4 60 -34 34 -54 -11
-8 -32 -14 -48 -14 -24 0 -28 -4 -28 -30 0 -26 4 -30 28 -30 72 0 120 56 106
122 -13 62 -105 89 -169 49z"/>
<path d="M122 1596 c-39 -18 -52 -49 -52 -122 l0 -54 200 0 200 0 0 30 0 30
-85 0 c-84 0 -85 0 -85 25 0 33 37 47 113 43 l57 -3 0 34 0 34 -80 -5 c-58 -3
-85 -10 -100 -23 -19 -17 -21 -17 -39 -1 -26 24 -89 29 -129 12z m116 -68 c7
-7 12 -20 12 -30 0 -15 -9 -18 -65 -18 -62 0 -65 1 -65 24 0 13 6 27 13 29 24
10 93 7 105 -5z"/>
<path d="M5351 1534 c0 -11 3 -14 6 -6 3 7 2 16 -1 19 -3 4 -6 -2 -5 -13z"/>
<path d="M5331 1467 c-1 -11 -6 -15 -13 -11 -6 4 -8 3 -5 -3 4 -6 -2 -22 -13
-35 -11 -14 -16 -29 -12 -33 4 -5 2 -5 -4 -2 -6 4 -19 -2 -29 -13 -10 -11 -21
-17 -25 -15 -4 3 -11 -2 -14 -11 -3 -8 -10 -12 -16 -9 -5 3 -10 2 -10 -4 0
-12 -91 -77 -102 -73 -5 1 -8 -2 -8 -8 0 -5 -22 -25 -50 -43 -27 -19 -48 -37
-45 -40 3 -4 2 -5 -2 -2 -3 3 -12 0 -20 -6 -7 -6 -13 -8 -13 -3 0 5 -7 -2 -16
-14 -14 -21 -41 -22 -28 -1 3 5 9 7 14 4 4 -3 11 2 14 11 9 25 7 27 -10 10 -8
-9 -20 -13 -26 -10 -6 4 -8 2 -4 -4 3 -6 -7 -20 -24 -32 -16 -12 -30 -27 -30
-33 0 -7 4 -6 10 3 5 8 10 10 10 4 0 -6 -9 -19 -20 -29 -11 -10 -20 -15 -20
-10 0 4 -7 2 -15 -5 -8 -7 -12 -16 -9 -21 3 -5 -3 -6 -12 -2 -13 5 -15 3 -9
-8 4 -8 4 -11 0 -6 -5 4 -19 -2 -31 -14 -16 -15 -24 -17 -29 -8 -6 8 -4 10 5
4 9 -5 11 -4 6 4 -6 8 -12 9 -20 2 -7 -6 -16 -7 -20 -3 -4 4 -6 0 -4 -8 2 -9
-4 -14 -14 -14 -10 1 -16 -3 -15 -10 1 -6 -4 -10 -11 -8 -8 1 -10 -2 -7 -8 4
-7 18 -2 39 14 22 17 33 20 33 11 0 -8 -3 -13 -6 -13 -16 3 -40 -15 -34 -26 3
-6 2 -8 -2 -3 -5 4 -19 -2 -31 -14 -16 -15 -24 -17 -29 -8 -6 8 -4 10 5 4 9
-5 11 -4 6 4 -6 8 -12 9 -20 2 -7 -6 -16 -8 -20 -4 -4 4 -4 -1 0 -11 5 -14 9
-15 16 -4 8 11 9 11 6 0 -2 -8 -7 -12 -11 -10 -3 2 -13 -7 -21 -18 -11 -15
-23 -20 -41 -17 -14 3 -25 1 -25 -6 0 -5 6 -9 13 -7 6 1 9 1 4 -1 -4 -3 -4
-10 0 -16 3 -7 3 -9 -2 -5 -4 4 -22 -4 -40 -18 -24 -18 -35 -22 -41 -13 -5 8
-3 9 6 4 9 -5 11 -4 6 4 -6 8 -12 9 -20 2 -7 -6 -16 -7 -20 -3 -4 4 -6 0 -4
-8 2 -9 -4 -15 -12 -14 -10 1 -16 -8 -17 -20 -1 -12 1 -15 4 -8 3 6 9 12 15
12 6 0 17 8 25 18 11 13 13 13 6 1 -13 -26 -72 -71 -85 -66 -8 3 -7 6 4 6 9 1
19 5 22 10 3 5 -5 8 -18 7 -13 0 -24 -5 -23 -11 1 -5 -5 -10 -13 -9 -9 1 -17
-7 -17 -18 -2 -16 0 -17 13 -3 19 19 21 19 21 0 0 -8 -2 -13 -5 -10 -2 2 -21
-8 -40 -23 -20 -15 -33 -22 -29 -16 4 8 -2 11 -17 10 -13 0 -24 -5 -23 -11 1
-5 -6 -9 -15 -9 -10 1 -16 -3 -15 -10 1 -6 -6 -10 -15 -10 -10 1 -15 -2 -13
-7 3 -5 -3 -14 -15 -21 -11 -7 -20 -17 -20 -22 0 -5 8 -2 18 7 16 15 19 15 19
2 0 -8 -2 -13 -5 -10 -3 2 -22 -9 -42 -25 -20 -16 -40 -27 -44 -23 -3 3 -6 1
-6 -5 0 -6 -16 -22 -35 -35 -19 -13 -34 -26 -32 -28 1 -2 0 -3 -2 -2 -2 2 -10
-2 -18 -8 -7 -6 -13 -9 -13 -6 0 4 -10 -4 -23 -16 -13 -12 -21 -26 -19 -32 3
-5 2 -7 -3 -3 -4 4 -37 -13 -73 -39 -36 -25 -62 -42 -59 -36 4 6 1 13 -7 16
-9 4 -12 0 -9 -12 6 -22 -32 -58 -43 -40 -4 8 -3 10 4 5 8 -5 10 -1 5 10 -5
15 -7 15 -15 0 -5 -9 -14 -13 -20 -10 -7 4 -8 2 -4 -4 4 -7 2 -12 -3 -12 -6 0
-11 -5 -11 -12 0 -6 7 -4 18 5 16 15 19 15 19 2 0 -8 -3 -13 -5 -10 -3 3 -16
-5 -29 -17 -13 -12 -23 -18 -23 -14 0 5 -8 -2 -18 -15 -15 -17 -21 -19 -27 -9
-6 9 -4 11 5 5 9 -6 11 -4 5 5 -5 8 -4 11 2 7 6 -4 14 0 17 9 8 21 7 31 -2 19
-18 -26 -102 -86 -112 -80 -6 4 -9 1 -8 -7 2 -7 -3 -12 -10 -10 -8 1 -11 -2
-6 -9 5 -9 2 -10 -9 -6 -10 4 -16 2 -14 -6 1 -7 -6 -11 -15 -11 -10 1 -15 -2
-13 -7 7 -11 -30 -30 -40 -21 -5 4 -5 2 -1 -5 4 -8 -5 -13 -26 -16 -33 -4 -33
-4 5 -5 20 -1 37 1 37 6 0 4 26 8 58 8 91 3 303 51 482 110 570 188 1034 564
1268 1030 41 81 104 253 98 267 -2 7 -5 4 -5 -6z m-434 -352 c0 -8 -4 -12 -9
-9 -4 3 -8 0 -8 -7 0 -7 -3 -9 -6 -6 -4 4 -1 13 6 22 15 19 17 19 17 0z m-670
-486 c-9 -6 -14 -15 -11 -21 4 -6 2 -8 -4 -4 -6 3 -13 2 -17 -4 -3 -5 -14 -10
-23 -9 -13 0 -14 2 -2 6 8 3 23 14 34 25 11 10 25 18 30 18 6 0 3 -5 -7 -11z
m-624 -454 c-3 -9 -8 -14 -10 -11 -3 3 -2 9 2 15 9 16 15 13 8 -4z m-32 -28
c-10 -9 -11 -8 -5 6 3 10 9 15 12 12 3 -3 0 -11 -7 -18z m-29 -14 c-6 -2 -10
-9 -6 -14 3 -5 2 -9 -3 -8 -17 4 -43 -14 -36 -25 3 -6 3 -8 -2 -4 -4 4 -17 2
-29 -4 -27 -14 -20 -6 29 31 22 16 45 30 50 30 6 -1 4 -3 -3 -6z"/>
<path d="M5286 1425 c-3 -10 -11 -13 -18 -9 -7 4 -10 4 -6 -1 10 -10 -18 -36
-40 -38 -11 0 -19 -9 -19 -21 -2 -19 -1 -19 8 -3 6 9 14 15 18 13 10 -6 77 62
69 69 -3 3 -8 -1 -12 -10z"/>
<path d="M5175 1341 c-3 -12 -13 -21 -21 -21 -8 0 -14 -4 -14 -10 0 -5 -5 -10
-11 -10 -6 0 -17 -6 -25 -14 -28 -28 -13 -26 29 5 42 30 63 56 54 66 -3 2 -8
-5 -12 -16z"/>
<path d="M420 1255 l0 -66 -62 3 -63 3 0 43 c0 39 -2 42 -27 42 -26 0 -28 -3
-28 -45 l0 -45 -55 0 -55 0 0 60 0 60 -30 0 -30 0 0 -90 0 -90 200 0 200 0 0
95 c0 95 0 95 -25 95 -24 0 -25 -2 -25 -65z"/>
<path d="M5065 1261 c-3 -12 -13 -21 -21 -21 -8 0 -14 -4 -14 -10 0 -5 -7 -10
-15 -10 -8 0 -15 -4 -15 -10 0 -5 -5 -10 -11 -10 -6 0 -17 -6 -25 -14 -30 -30
-12 -24 43 15 56 39 80 65 70 76 -3 2 -8 -5 -12 -16z"/>
<path d="M4793 1065 c1 -5 -6 -9 -15 -9 -10 1 -16 -3 -15 -10 1 -6 -4 -10 -11
-8 -8 1 -11 -2 -6 -9 5 -9 2 -10 -9 -6 -11 4 -14 2 -10 -8 4 -11 15 -6 48 21
24 19 46 34 49 32 2 -2 8 0 12 5 4 4 -4 6 -19 5 -14 -1 -25 -7 -24 -13z"/>
<path d="M70 981 c0 -28 2 -29 68 -41 37 -6 89 -14 115 -17 26 -3 50 -9 52
-13 3 -5 -37 -15 -88 -24 -158 -28 -147 -24 -147 -57 0 -17 5 -29 13 -29 6 1
95 18 197 38 l185 38 3 32 c2 18 0 32 -5 32 -4 0 -91 16 -193 35 -102 19 -188
35 -192 35 -5 0 -8 -13 -8 -29z"/>
<path d="M4617 935 c3 -8 9 -12 14 -9 12 7 11 11 -5 17 -10 4 -13 1 -9 -8z"/>
<path d="M4550 885 c0 -9 -6 -12 -15 -9 -8 4 -15 4 -15 1 0 -16 31 -13 40 3 7
14 7 20 0 20 -5 0 -10 -7 -10 -15z"/>
<path d="M4480 829 c0 -6 -9 -9 -19 -6 -14 3 -18 1 -14 -9 4 -10 10 -11 23 -4
23 12 35 30 21 30 -6 0 -11 -5 -11 -11z"/>
<path d="M70 650 l0 -30 200 0 200 0 0 30 0 30 -200 0 -200 0 0 -30z"/>
<path d="M4260 670 c0 -5 7 -7 15 -4 8 4 15 8 15 10 0 2 -7 4 -15 4 -8 0 -15
-4 -15 -10z"/>
<path d="M4080 546 c-14 -8 -28 -12 -33 -9 -4 2 -7 1 -6 -4 4 -21 -2 -33 -16
-33 -8 0 -15 -4 -15 -10 0 -5 -5 -10 -11 -10 -11 0 -39 -24 -39 -34 0 -10 84
54 93 70 5 8 12 12 18 9 5 -4 9 -2 9 3 0 5 10 14 23 20 12 6 18 11 12 11 -5 0
-21 -6 -35 -13z"/>
<path d="M70 470 l0 -30 102 0 c56 0 99 -3 96 -6 -4 -3 -48 -18 -100 -33 -90
-27 -93 -29 -96 -60 l-3 -31 200 0 201 0 0 25 0 25 -121 0 c-114 0 -147 10
-79 24 17 3 69 17 116 31 80 25 84 27 84 56 l0 29 -200 0 -200 0 0 -30z"/>
<path d="M3935 441 c-3 -12 -13 -21 -21 -21 -8 0 -14 -3 -14 -8 0 -4 -18 -18
-40 -32 -22 -14 -40 -29 -40 -34 0 -4 -9 -6 -19 -3 -14 3 -18 1 -14 -9 6 -16
6 -15 90 44 56 40 80 68 69 79 -2 3 -7 -5 -11 -16z"/>
<path d="M3747 303 c-4 -3 -7 -11 -7 -17 0 -6 5 -5 12 2 6 6 9 14 7 17 -3 3
-9 2 -12 -2z"/>
<path d="M3660 229 c0 -5 5 -7 10 -4 6 3 10 8 10 11 0 2 -4 4 -10 4 -5 0 -10
-5 -10 -11z"/>
<path d="M70 160 l0 -30 173 -2 172 -3 0 -25 0 -25 -172 -3 -173 -2 0 -36 0
-36 173 4 c142 2 178 6 199 20 49 32 44 133 -8 157 -15 7 -89 11 -194 11
l-170 0 0 -30z"/>
<path d="M3263 43 c15 -2 37 -2 50 0 12 2 0 4 -28 4 -27 0 -38 -2 -22 -4z"/>
</g>
</svg>
